HIERARCHY
ROOT Hips
{
  OFFSET 5.72205e-005 65.662 3.42586
  CHANNELS 6 Xposition Yposition Zposition Zrotation Xrotation Yrotation
  JOINT Chest
  {
    OFFSET 0 8.7983 -4.7612
    CHANNELS 6 Xposition Yposition Zposition Zrotation Xrotation Yrotation
    JOINT Chest2
    {
      OFFSET 0 8.0291 0.4195
      CHANNELS 6 Xposition Yposition Zposition Zrotation Xrotation Yrotation
      JOINT Chest3
      {
        OFFSET 0 9.9351 -2.2114
        CHANNELS 6 Xposition Yposition Zposition Zrotation Xrotation Yrotation
        JOINT Neck
        {
          OFFSET 0 22.3885 -0.4656
          CHANNELS 6 Xposition Yposition Zposition Zrotation Xrotation Yrotation
          JOINT Head
          {
            OFFSET -0.0001 12.643 3.4389
            CHANNELS 6 Xposition Yposition Zposition Zrotation Xrotation Yrotation
            End Site
            {
              OFFSET 0.0001 17.6655 0.5274
            }
          }
        }
        JOINT LeftCollar
        {
          OFFSET 2.2603 21.606 7.4023
          CHANNELS 6 Xposition Yposition Zposition Zrotation Xrotation Yrotation
          JOINT LeftShoulder
          {
            OFFSET 13.5163 -1.1332 -5.0146
            CHANNELS 6 Xposition Yposition Zposition Zrotation Xrotation Yrotation
            JOINT LeftElbow
            {
              OFFSET -0.0995 -28.05 -0.2431
              CHANNELS 6 Xposition Yposition Zposition Zrotation Xrotation Yrotation
              JOINT LeftWrist
              {
                OFFSET 0.0679 -23.3996 -0.1402
                CHANNELS 6 Xposition Yposition Zposition Zrotation Xrotation Yrotation
                JOINT LeftFinger1
                {
                  OFFSET 0.7932 -9.069 2.5189
                  CHANNELS 6 Xposition Yposition Zposition Zrotation Xrotation Yrotation
                  JOINT LeftFinger11
                  {
                    OFFSET -0.8272 -3.3923 0.5977
                    CHANNELS 6 Xposition Yposition Zposition Zrotation Xrotation Yrotation
                    JOINT LeftFinger12
                    {
                      OFFSET -0.5649 -2.3158 0.4082
                      CHANNELS 6 Xposition Yposition Zposition Zrotation Xrotation Yrotation
                      End Site
                      {
                        OFFSET -0.4919 -1.6479 0.2673
                      }
                    }
                  }
                }
                JOINT LeftFinger2
                {
                  OFFSET 0.9159 -9.2044 0.2193
                  CHANNELS 6 Xposition Yposition Zposition Zrotation Xrotation Yrotation
                  JOINT LeftFinger21
                  {
                    OFFSET 0.0117 -4.1944 -0.0248
                    CHANNELS 6 Xposition Yposition Zposition Zrotation Xrotation Yrotation
                    JOINT LeftFinger22
                    {
                      OFFSET 0.0071 -2.3249 -0.0142
                      CHANNELS 6 Xposition Yposition Zposition Zrotation Xrotation Yrotation
                      End Site
                      {
                        OFFSET -0.1475 -2.0882 0.0028
                      }
                    }
                  }
                }
                JOINT LeftFinger3
                {
                  OFFSET 0.6113 -8.7231 -2.0637
                  CHANNELS 6 Xposition Yposition Zposition Zrotation Xrotation Yrotation
                  JOINT LeftFinger31
                  {
                    OFFSET -0.1927 -3.8059 -0.2383
                    CHANNELS 6 Xposition Yposition Zposition Zrotation Xrotation Yrotation
                    JOINT LeftFinger32
                    {
                      OFFSET -0.1091 -2.1688 -0.1362
                      CHANNELS 6 Xposition Yposition Zposition Zrotation Xrotation Yrotation
                      End Site
                      {
                        OFFSET -0.2358 -1.9176 -0.0906
                      }
                    }
                  }
                }
                JOINT LeftFinger4
                {
                  OFFSET -0.6151 -8.0947 -3.5641
                  CHANNELS 6 Xposition Yposition Zposition Zrotation Xrotation Yrotation
                  JOINT LeftFinger41
                  {
                    OFFSET -0.4882 -2.341 -0.6462
                    CHANNELS 6 Xposition Yposition Zposition Zrotation Xrotation Yrotation
                    JOINT LeftFinger42
                    {
                      OFFSET -0.3575 -1.7167 -0.4742
                      CHANNELS 6 Xposition Yposition Zposition Zrotation Xrotation Yrotation
                      End Site
                      {
                        OFFSET -0.4187 -1.5237 -0.3496
                      }
                    }
                  }
                }
                JOINT LeftFinger0
                {
                  OFFSET -1.42 -1.8761 1.4223
                  CHANNELS 6 Xposition Yposition Zposition Zrotation Xrotation Yrotation
                  JOINT LeftFinger01
                  {
                    OFFSET -1.1471 -3.4929 2.6334
                    CHANNELS 6 Xposition Yposition Zposition Zrotation Xrotation Yrotation
                    JOINT LeftFinger02
                    {
                      OFFSET -0.823 -2.3 1.6571
                      CHANNELS 6 Xposition Yposition Zposition Zrotation Xrotation Yrotation
                      End Site
                      {
                        OFFSET -0.5822 -1.6914 1.1582
                      }
                    }
                  }
                }
              }
            }
          }
        }
        JOINT RightCollar
        {
          OFFSET -2.2603 21.606 7.4023
          CHANNELS 6 Xposition Yposition Zposition Zrotation Xrotation Yrotation
          JOINT RightShoulder
          {
            OFFSET -13.5187 -1.1334 -5.0155
            CHANNELS 6 Xposition Yposition Zposition Zrotation Xrotation Yrotation
            JOINT RightElbow
            {
              OFFSET 0.0994 -28.0499 -0.2431
              CHANNELS 6 Xposition Yposition Zposition Zrotation Xrotation Yrotation
              JOINT RightWrist
              {
                OFFSET -0.0679 -23.3996 -0.1402
                CHANNELS 6 Xposition Yposition Zposition Zrotation Xrotation Yrotation
                JOINT RightFinger1
                {
                  OFFSET -0.7932 -9.0691 2.5189
                  CHANNELS 6 Xposition Yposition Zposition Zrotation Xrotation Yrotation
                  JOINT RightFinger11
                  {
                    OFFSET 0.8272 -3.3923 0.5977
                    CHANNELS 6 Xposition Yposition Zposition Zrotation Xrotation Yrotation
                    JOINT RightFinger12
                    {
                      OFFSET 0.565 -2.3158 0.4082
                      CHANNELS 6 Xposition Yposition Zposition Zrotation Xrotation Yrotation
                      End Site
                      {
                        OFFSET 0.4919 -1.6479 0.2673
                      }
                    }
                  }
                }
                JOINT RightFinger2
                {
                  OFFSET -0.916 -9.2044 0.2193
                  CHANNELS 6 Xposition Yposition Zposition Zrotation Xrotation Yrotation
                  JOINT RightFinger21
                  {
                    OFFSET -0.0117 -4.1944 -0.0248
                    CHANNELS 6 Xposition Yposition Zposition Zrotation Xrotation Yrotation
                    JOINT RightFinger22
                    {
                      OFFSET -0.0071 -2.3249 -0.0142
                      CHANNELS 6 Xposition Yposition Zposition Zrotation Xrotation Yrotation
                      End Site
                      {
                        OFFSET 0.1475 -2.0882 0.0028
                      }
                    }
                  }
                }
                JOINT RightFinger3
                {
                  OFFSET -0.6113 -8.7231 -2.0637
                  CHANNELS 6 Xposition Yposition Zposition Zrotation Xrotation Yrotation
                  JOINT RightFinger31
                  {
                    OFFSET 0.1927 -3.8059 -0.2383
                    CHANNELS 6 Xposition Yposition Zposition Zrotation Xrotation Yrotation
                    JOINT RightFinger32
                    {
                      OFFSET 0.1091 -2.1688 -0.1362
                      CHANNELS 6 Xposition Yposition Zposition Zrotation Xrotation Yrotation
                      End Site
                      {
                        OFFSET 0.2358 -1.9176 -0.0906
                      }
                    }
                  }
                }
                JOINT RightFinger4
                {
                  OFFSET 0.6151 -8.0947 -3.564
                  CHANNELS 6 Xposition Yposition Zposition Zrotation Xrotation Yrotation
                  JOINT RightFinger41
                  {
                    OFFSET 0.4882 -2.341 -0.6462
                    CHANNELS 6 Xposition Yposition Zposition Zrotation Xrotation Yrotation
                    JOINT RightFinger42
                    {
                      OFFSET 0.3574 -1.7166 -0.4742
                      CHANNELS 6 Xposition Yposition Zposition Zrotation Xrotation Yrotation
                      End Site
                      {
                        OFFSET 0.4187 -1.5237 -0.3496
                      }
                    }
                  }
                }
                JOINT RightFinger0
                {
                  OFFSET 1.4199 -1.8761 1.4221
                  CHANNELS 6 Xposition Yposition Zposition Zrotation Xrotation Yrotation
                  JOINT RightFinger01
                  {
                    OFFSET 1.1472 -3.4929 2.6336
                    CHANNELS 6 Xposition Yposition Zposition Zrotation Xrotation Yrotation
                    JOINT RightFinger02
                    {
                      OFFSET 0.8229 -2.3 1.6571
                      CHANNELS 6 Xposition Yposition Zposition Zrotation Xrotation Yrotation
                      End Site
                      {
                        OFFSET 0.5822 -1.6914 1.1582
                      }
                    }
                  }
                }
              }
            }
          }
        }
      }
    }
  }
  JOINT RightHip
  {
    OFFSET -9.412 3.9771 -0.7758
    CHANNELS 6 Xposition Yposition Zposition Zrotation Xrotation Yrotation
    JOINT RightKnee
    {
      OFFSET -0.7531 -40.938 0
      CHANNELS 6 Xposition Yposition Zposition Zrotation Xrotation Yrotation
      JOINT RightAnkle
      {
        OFFSET 0 -40.1986 0
        CHANNELS 6 Xposition Yposition Zposition Zrotation Xrotation Yrotation
        JOINT RightToe
        {
          OFFSET 0 -4.4182 9.239
          CHANNELS 6 Xposition Yposition Zposition Zrotation Xrotation Yrotation
          End Site
          {
            OFFSET 0 0 6.1981
          }
        }
      }
    }
  }
  JOINT LeftHip
  {
    OFFSET 9.4119 3.9773 -0.7758
    CHANNELS 6 Xposition Yposition Zposition Zrotation Xrotation Yrotation
    JOINT LeftKnee
    {
      OFFSET 0.7532 -40.9383 0
      CHANNELS 6 Xposition Yposition Zposition Zrotation Xrotation Yrotation
      JOINT LeftAnkle
      {
        OFFSET 0 -40.1986 0
        CHANNELS 6 Xposition Yposition Zposition Zrotation Xrotation Yrotation
        JOINT LeftToe
        {
          OFFSET 0 -4.4182 9.239
          CHANNELS 6 Xposition Yposition Zposition Zrotation Xrotation Yrotation
          End Site
          {
            OFFSET 0 0 6.1981
          }
        }
      }
    }
  }
}
MOTION
Frames:	4
Frame Time:	0.0333333
5.72205e-005 65.662 3.42586 0 0 -0 0 8.7983 -4.7612 0 0 -0 0 8.0291 0.4195 0 0 -0 0 9.9351 -2.2114 0 0 -0 0 22.3885 -0.4656 0 0 -0 -0.0001 12.643 3.4389 0 0 -0 2.2603 21.606 7.4023 0 0 -12.5014 13.5163 -1.1332 -5.0146 88.1196 14.2451 10.6914 -0.0995 -28.05 -0.2431 -0.00160068 -0.00239207 0.000740045 0.0679 -23.3996 -0.1402 -8.4365e-005 7.00714e-005 -9.52055e-007 0.7932 -9.069 2.5189 9.93923e-017 -1.98785e-016 -1.59028e-015 -0.8272 -3.3923 0.5977 9.93923e-017 -5.96354e-016 -1.59028e-015 -0.5649 -2.3158 0.4082 -9.93923e-017 -5.96354e-016 -1.59028e-015 0.9159 -9.2044 0.2193 9.93923e-017 -1.98785e-016 -1.59028e-015 0.0117 -4.1944 -0.0248 -0.0128176 0.00232552 8.52707e-005 0.0071 -2.3249 -0.0142 9.93923e-017 5.96354e-016 -0 0.6113 -8.7231 -2.0637 9.93923e-017 -1.98785e-016 -1.59028e-015 -0.1927 -3.8059 -0.2383 -0.0160551 0.00299681 0.000857156 -0.1091 -2.1688 -0.1362 -2.48481e-016 0 3.18055e-015 -0.6151 -8.0947 -3.5641 9.93923e-017 -1.98785e-016 -1.59028e-015 -0.4882 -2.341 -0.6462 -0.0125865 0.0031206 0.00282719 -0.3575 -1.7167 -0.4742 0 1.98785e-016 -0 -1.42 -1.8761 1.4223 9.93923e-017 -1.98785e-016 -1.59028e-015 -1.1471 -3.4929 2.6334 9.93923e-017 -5.96354e-016 -1.59028e-015 -0.823 -2.3 1.6571 -9.93923e-017 -5.96354e-016 -1.59028e-015 -2.2603 21.606 7.4023 -0.865644 0.16582 7.03859 -13.5187 -1.1334 -5.0155 -88.0329 10.2057 -10.5567 0.0994 -28.0499 -0.2431 0.0015593 -0.00248883 -0.000788628 -0.0679 -23.3996 -0.1402 7.87605e-005 4.10553e-005 1.24965e-005 -0.7932 -9.0691 2.5189 -3.97569e-016 -7.95139e-016 3.18055e-015 0.8272 -3.3923 0.5977 -1.98785e-016 -3.97569e-016 3.18055e-015 0.565 -2.3158 0.4082 -1.98785e-016 0 3.18055e-015 -0.916 -9.2044 0.2193 -3.97569e-016 -7.95139e-016 3.18055e-015 -0.0117 -4.1944 -0.0248 0.0129473 0.00231697 -8.70038e-005 -0.0071 -2.3249 -0.0142 9.93923e-017 -7.95139e-016 1.59028e-015 -0.6113 -8.7231 -2.0637 -3.97569e-016 -7.95139e-016 3.18055e-015 0.1927 -3.8059 -0.2383 0.0163314 0.00303369 -0.000872333 0.1091 -2.1688 -0.1362 3.97569e-016 7.95139e-016 -3.18055e-015 0.6151 -8.0947 -3.564 -3.97569e-016 -7.95139e-016 3.18055e-015 0.4882 -2.341 -0.6462 0.0145763 0.00367772 -0.00326275 0.3574 -1.7166 -0.4742 9.93923e-017 -3.97569e-016 -0 1.4199 -1.8761 1.4221 -3.97569e-016 -7.95139e-016 3.18055e-015 1.1472 -3.4929 2.6336 -1.98785e-016 -3.97569e-016 3.18055e-015 0.8229 -2.3 1.6571 -1.98785e-016 0 3.18055e-015 -9.412 3.9771 -0.7758 3.42482 1.32465 -0.0626183 -0.7531 -40.938 0 0.000117508 0.717283 0.000978199 0 -40.1986 0 -3.4257 -2.04197 -0.0604716 8.88178e-016 -4.4182 9.239 6.47761e-025 0 -0 9.4119 3.9773 -0.7758 -3.42483 1.34017 0.0627307 0.7532 -40.9383 -2.22045e-016 -0.000193936 0.682302 -0.0013703 -8.88179e-016 -40.1986 0 3.42574 -2.02253 0.0595886 -8.88178e-016 -4.4182 9.239 -8.45714e-024 0 -7.40531e-025 
-40.2357 1.38441 30.5198 -105.104 6.9388 -101.105 0 8.7983 -4.7612 0.791589 12.2588 -0.696229 0 8.0291 0.4195 1.80415 24.5053 -1.62856 3.55271e-015 9.9351 -2.2114 1.80413 24.5053 -1.62857 0 22.3885 -0.4656 2.03496 10.9904 -0.390767 -0.0001 12.643 3.4389 2.13152 -20.3212 -1.26146 2.2603 21.606 7.4023 -50.6488 17.5382 -29.9318 13.5163 -1.1332 -5.0146 178.139 3.44079 134.51 -0.0995 -28.05 -0.2431 -122.766 -36.825 -71.854 0.0679 -23.3996 -0.1402 -15.5961 0.81085 8.55469 0.7932 -9.069 2.5189 -3.18055e-015 3.18055e-015 -7.95139e-016 -0.8272 -3.3923 0.5977 -6.36111e-015 6.36111e-015 -7.95139e-016 -0.5649 -2.3158 0.4082 -3.18055e-015 4.77083e-015 7.95139e-016 0.9159 -9.2044 0.2193 -3.18055e-015 3.18055e-015 -7.95139e-016 0.0117 -4.1944 -0.0248 -0.0128222 0.00231956 8.53107e-005 0.0071 -2.3249 -0.0142 -3.18055e-015 -1.59028e-015 7.95139e-016 0.6113 -8.7231 -2.0637 -3.18055e-015 3.18055e-015 -7.95139e-016 -0.1927 -3.8059 -0.2383 -0.0160464 0.00299738 0.000852055 -0.1091 -2.1688 -0.1362 6.36111e-015 1.59028e-015 -7.95139e-016 -0.6151 -8.0947 -3.5641 -3.18055e-015 3.18055e-015 -7.95139e-016 -0.4882 -2.341 -0.6462 -0.012589 0.00311192 0.00282891 -0.3575 -1.7167 -0.4742 -3.18055e-015 4.77083e-015 -2.38542e-015 -1.42 -1.8761 1.4223 -3.18055e-015 3.18055e-015 -7.95139e-016 -1.1471 -3.4929 2.6334 -6.36111e-015 6.36111e-015 -7.95139e-016 -0.823 -2.3 1.6571 -3.18055e-015 4.77083e-015 7.95139e-016 -2.2603 21.606 7.4023 -7.51303 6.98865 4.36436 -13.5187 -1.1334 -5.0155 -20.6896 -13.4922 17.8626 0.0994 -28.0499 -0.2431 -128.554 -79.3874 177.61 -0.0679 -23.3996 -0.1402 27.9347 -13.1217 1.00384 -0.7932 -9.0691 2.5189 3.18055e-015 -4.77083e-015 3.18055e-015 0.8272 -3.3923 0.5977 1.76556e-031 3.18055e-015 -3.18055e-015 0.565 -2.3158 0.4082 3.18055e-015 6.36111e-015 3.18055e-015 -0.916 -9.2044 0.2193 3.18055e-015 -4.77083e-015 3.18055e-015 -0.0117 -4.1944 -0.0248 0.0129724 0.00232129 -8.62819e-005 -0.0071 -2.3249 -0.0142 1.59028e-015 0 3.18055e-015 -0.6113 -8.7231 -2.0637 3.18055e-015 -4.77083e-015 3.18055e-015 0.1927 -3.8059 -0.2383 0.0163177 0.0030319 -0.000882127 0.1091 -2.1688 -0.1362 1.05934e-030 -6.36111e-015 9.54166e-015 0.6151 -8.0947 -3.564 3.18055e-015 -4.77083e-015 3.18055e-015 0.4882 -2.341 -0.6462 0.0145712 0.0036761 -0.00325411 0.3574 -1.7166 -0.4742 -6.36111e-015 -6.36111e-015 6.36111e-015 1.4199 -1.8761 1.4221 3.18055e-015 -4.77083e-015 3.18055e-015 1.1472 -3.4929 2.6336 1.76556e-031 3.18055e-015 -3.18055e-015 0.8229 -2.3 1.6571 3.18055e-015 6.36111e-015 3.18055e-015 -9.412 3.9771 -0.7758 0.2099 2.92506 25.473 -0.7531 -40.938 8.88179e-016 0.336002 45.3741 -0.565682 0 -40.1986 0 22.5138 24.4291 2.99869 0 -4.4182 9.239 -2.79671e-006 -4.0062e-005 -1.73931e-005 9.4119 3.9773 -0.7758 24.2692 -11.6071 -7.8299 0.7532 -40.9383 0 179.036 79.686 -177.612 7.10543e-015 -40.1986 0 -25.7982 17.9287 0.86834 7.10543e-015 -4.4182 9.239 -1.59028e-015 1.19271e-015 6.36111e-015 
-40.2357 1.38425 30.5198 -105.104 6.9388 -101.105 0 8.7983 -4.7612 0.791589 12.2588 -0.696229 0 8.0291 0.4195 1.80415 24.5053 -1.62856 3.55271e-015 9.9351 -2.2114 1.80413 24.5053 -1.62857 0 22.3885 -0.4656 2.03496 10.9904 -0.390767 -0.0001 12.643 3.4389 1.82606 -20.4617 -1.64699 2.2603 21.606 7.4023 -50.6488 17.5382 -29.9318 13.5163 -1.1332 -5.0146 178.139 3.44079 134.51 -0.0995 -28.05 -0.2431 -122.766 -36.825 -71.854 0.0679 -23.3996 -0.1402 -15.5961 0.81085 8.55469 0.7932 -9.069 2.5189 -3.18055e-015 3.18055e-015 -7.95139e-016 -0.8272 -3.3923 0.5977 -6.36111e-015 6.36111e-015 -7.95139e-016 -0.5649 -2.3158 0.4082 -3.18055e-015 4.77083e-015 7.95139e-016 0.9159 -9.2044 0.2193 -3.18055e-015 3.18055e-015 -7.95139e-016 0.0117 -4.1944 -0.0248 -0.0128222 0.00231956 8.53107e-005 0.0071 -2.3249 -0.0142 -3.18055e-015 -1.59028e-015 7.95139e-016 0.6113 -8.7231 -2.0637 -3.18055e-015 3.18055e-015 -7.95139e-016 -0.1927 -3.8059 -0.2383 -0.0160464 0.00299738 0.000852055 -0.1091 -2.1688 -0.1362 6.36111e-015 1.59028e-015 -7.95139e-016 -0.6151 -8.0947 -3.5641 -3.18055e-015 3.18055e-015 -7.95139e-016 -0.4882 -2.341 -0.6462 -0.012589 0.00311192 0.00282891 -0.3575 -1.7167 -0.4742 -3.18055e-015 4.77083e-015 -2.38542e-015 -1.42 -1.8761 1.4223 -3.18055e-015 3.18055e-015 -7.95139e-016 -1.1471 -3.4929 2.6334 -6.36111e-015 6.36111e-015 -7.95139e-016 -0.823 -2.3 1.6571 -3.18055e-015 4.77083e-015 7.95139e-016 -2.2603 21.606 7.4023 -7.51303 6.98865 4.36436 -13.5187 -1.1334 -5.0155 -20.6895 -13.4922 17.8625 0.0994 -28.0499 -0.2431 -133.394 -79.0618 173.469 -0.0679 -23.3996 -0.1402 26.0281 -13.4771 1.06523 -0.7932 -9.0691 2.5189 4.00701e-007 -1.39244e-006 1.37705e-007 0.8272 -3.3923 0.5977 -1.59028e-015 4.77083e-015 -0 0.565 -2.3158 0.4082 -3.18055e-015 6.36111e-015 -0 -0.916 -9.2044 0.2193 4.00701e-007 -1.39244e-006 1.37705e-007 -0.0117 -4.1944 -0.0248 0.0129574 0.00231588 -7.93169e-005 -0.0071 -2.3249 -0.0142 -0 -2.05406e-006 -0 -0.6113 -8.7231 -2.0637 4.00701e-007 -1.39244e-006 1.37705e-007 0.1927 -3.8059 -0.2383 0.0163382 0.00303196 -0.000874733 0.1091 -2.1688 -0.1362 -1.09284e-006 8.622e-007 2.32871e-006 0.6151 -8.0947 -3.564 4.00701e-007 -1.39244e-006 1.37705e-007 0.4882 -2.341 -0.6462 0.0146204 0.0036863 -0.00326535 0.3574 -1.7166 -0.4742 2.34995e-024 4.23329e-008 -3.18055e-015 1.4199 -1.8761 1.4221 4.00701e-007 -1.39244e-006 1.37705e-007 1.1472 -3.4929 2.6336 -1.59028e-015 4.77083e-015 -0 0.8229 -2.3 1.6571 -3.18055e-015 6.36111e-015 -0 -9.412 3.9771 -0.7758 0.209897 2.92422 25.473 -0.7531 -40.938 8.88178e-016 0.336362 45.3747 -0.565728 3.55271e-015 -40.1986 7.10543e-015 22.5138 24.4292 2.99865 -1.77636e-015 -4.4182 9.239 9.37928e-006 -8.75903e-006 -8.54762e-007 9.4119 3.9773 -0.7758 24.3498 -11.6141 -7.73912 0.7532 -40.9383 0 179.037 79.6869 -177.612 -7.10543e-015 -40.1986 1.42109e-014 -25.7986 17.9308 0.869014 0 -4.4182 9.239 -3.18055e-015 -3.97569e-016 -0 
-40.2356 1.38409 30.5199 -105.104 6.93878 -101.105 0 8.7983 -4.7612 0.791612 12.2587 -0.696214 0 8.0291 0.4195 1.80416 24.5053 -1.62858 0 9.9351 -2.2114 1.80414 24.5053 -1.62858 0 22.3885 -0.4656 2.03495 10.9904 -0.390773 -0.0001 12.643 3.4389 1.5189 -20.6004 -2.03416 2.2603 21.606 7.4023 -50.6488 17.5382 -29.9318 13.5163 -1.1332 -5.0146 178.139 3.44078 134.51 -0.0995 -28.05 -0.2431 -122.766 -36.825 -71.854 0.0679 -23.3996 -0.1402 -15.5961 0.810839 8.5547 0.7932 -9.069 2.5189 8.28631e-007 9.67164e-007 3.28945e-006 -0.8272 -3.3923 0.5977 4.73216e-006 1.35718e-005 -3.3554e-007 -0.5649 -2.3158 0.4082 2.43984e-006 -1.61709e-006 -3.24952e-006 0.9159 -9.2044 0.2193 8.28631e-007 9.67164e-007 3.28945e-006 0.0117 -4.1944 -0.0248 -0.0128197 0.00235079 8.55585e-005 0.0071 -2.3249 -0.0142 -2.15695e-006 -2.27326e-005 -3.31513e-007 0.6113 -8.7231 -2.0637 8.28631e-007 9.67164e-007 3.28945e-006 -0.1927 -3.8059 -0.2383 -0.0160519 0.00299778 0.000856535 -0.1091 -2.1688 -0.1362 7.34055e-006 -2.15941e-006 -3.18913e-006 -0.6151 -8.0947 -3.5641 8.28631e-007 9.67164e-007 3.28945e-006 -0.4882 -2.341 -0.6462 -0.0125746 0.00314203 0.00281955 -0.3575 -1.7167 -0.4742 -2.15704e-006 -2.23801e-005 -3.32601e-007 -1.42 -1.8761 1.4223 8.28631e-007 9.67164e-007 3.28945e-006 -1.1471 -3.4929 2.6334 4.73216e-006 1.35718e-005 -3.3554e-007 -0.823 -2.3 1.6571 2.43984e-006 -1.61709e-006 -3.24952e-006 -2.2603 21.606 7.4023 -7.51304 6.98867 4.36436 -13.5187 -1.1334 -5.0155 -20.6895 -13.4922 17.8625 0.0994 -28.0499 -0.2431 -137.965 -78.6728 169.6 -0.0679 -23.3996 -0.1402 24.1028 -13.8375 1.11465 -0.7932 -9.0691 2.5189 -8.66401e-007 -5.4683e-006 2.15063e-006 0.8272 -3.3923 0.5977 -1.37163e-006 -8.2918e-006 4.00717e-006 0.565 -2.3158 0.4082 -1.44915e-006 -2.96827e-006 2.16299e-006 -0.916 -9.2044 0.2193 -8.66401e-007 -5.4683e-006 2.15063e-006 -0.0117 -4.1944 -0.0248 0.0129622 0.00230384 -8.29423e-005 -0.0071 -2.3249 -0.0142 -2.433e-007 2.19211e-006 2.56703e-006 -0.6113 -8.7231 -2.0637 -8.66401e-007 -5.4683e-006 2.15063e-006 0.1927 -3.8059 -0.2383 0.0163209 0.0030398 -0.000873389 0.1091 -2.1688 -0.1362 -2.09552e-006 -3.46554e-007 4.5953e-006 0.6151 -8.0947 -3.564 -8.66401e-007 -5.4683e-006 2.15063e-006 0.4882 -2.341 -0.6462 0.0145827 0.00368255 -0.00324655 0.3574 -1.7166 -0.4742 -7.32033e-006 5.47414e-006 -4.26803e-006 1.4199 -1.8761 1.4221 -8.66401e-007 -5.4683e-006 2.15063e-006 1.1472 -3.4929 2.6336 -1.37163e-006 -8.2918e-006 4.00717e-006 0.8229 -2.3 1.6571 -1.44915e-006 -2.96827e-006 2.16299e-006 -9.412 3.9771 -0.7758 0.209888 2.9221 25.4731 -0.7531 -40.938 2.66454e-015 0.337234 45.3765 -0.565772 0 -40.1986 0 22.5139 24.4293 2.99862 1.77636e-015 -4.4182 9.239 3.5122e-006 1.10315e-005 3.97827e-006 9.4119 3.9773 -0.7758 24.4304 -11.6212 -7.6483 0.7532 -40.9383 3.55271e-015 179.036 79.6877 -177.612 -3.55271e-015 -40.1986 0 -25.7991 17.9329 0.869663 -7.10543e-015 -4.4182 9.239 -1.69074e-006 1.46664e-006 6.64325e-006 
